<mxfile host="app.diagrams.net" agent="Mozilla/5.0 (Windows NT 10.0; Win64; x64) AppleWebKit/537.36 (KHTML, like Gecko) Chrome/128.0.0.0 Safari/537.36" version="24.7.10">
  <diagram name="Page-1" id="qFDNzk6nRhwjMlaVI2mM">
    <mxGraphModel dx="1260" dy="686" grid="1" gridSize="10" guides="1" tooltips="1" connect="1" arrows="1" fold="1" page="1" pageScale="1" pageWidth="850" pageHeight="1100" math="0" shadow="0">
      <root>
        <mxCell id="0" />
        <mxCell id="1" parent="0" />
        <mxCell id="T_LSmcnQ2nMDmwuOsEwf-22" style="edgeStyle=orthogonalEdgeStyle;rounded=0;orthogonalLoop=1;jettySize=auto;html=1;entryX=0.5;entryY=0;entryDx=0;entryDy=0;" edge="1" parent="1" source="T_LSmcnQ2nMDmwuOsEwf-1" target="T_LSmcnQ2nMDmwuOsEwf-9">
          <mxGeometry relative="1" as="geometry" />
        </mxCell>
        <mxCell id="T_LSmcnQ2nMDmwuOsEwf-1" value="Available without Photo" style="swimlane;fontStyle=1;align=center;verticalAlign=top;childLayout=stackLayout;horizontal=1;startSize=26;horizontalStack=0;resizeParent=1;resizeParentMax=0;resizeLast=0;collapsible=1;marginBottom=0;whiteSpace=wrap;html=1;rounded=1;" vertex="1" parent="1">
          <mxGeometry x="210" y="180" width="160" height="100" as="geometry" />
        </mxCell>
        <mxCell id="T_LSmcnQ2nMDmwuOsEwf-2" value="status, image, borrower" style="text;strokeColor=none;fillColor=none;align=left;verticalAlign=top;spacingLeft=4;spacingRight=4;overflow=hidden;rotatable=0;points=[[0,0.5],[1,0.5]];portConstraint=eastwest;whiteSpace=wrap;html=1;" vertex="1" parent="T_LSmcnQ2nMDmwuOsEwf-1">
          <mxGeometry y="26" width="160" height="26" as="geometry" />
        </mxCell>
        <mxCell id="T_LSmcnQ2nMDmwuOsEwf-3" value="" style="line;strokeWidth=1;fillColor=none;align=left;verticalAlign=middle;spacingTop=-1;spacingLeft=3;spacingRight=3;rotatable=0;labelPosition=right;points=[];portConstraint=eastwest;strokeColor=inherit;" vertex="1" parent="T_LSmcnQ2nMDmwuOsEwf-1">
          <mxGeometry y="52" width="160" height="8" as="geometry" />
        </mxCell>
        <mxCell id="T_LSmcnQ2nMDmwuOsEwf-4" value="do add photo&lt;div&gt;do set borrower&lt;/div&gt;" style="text;strokeColor=none;fillColor=none;align=left;verticalAlign=top;spacingLeft=4;spacingRight=4;overflow=hidden;rotatable=0;points=[[0,0.5],[1,0.5]];portConstraint=eastwest;whiteSpace=wrap;html=1;" vertex="1" parent="T_LSmcnQ2nMDmwuOsEwf-1">
          <mxGeometry y="60" width="160" height="40" as="geometry" />
        </mxCell>
        <mxCell id="T_LSmcnQ2nMDmwuOsEwf-5" value="Available with Photo" style="swimlane;fontStyle=1;align=center;verticalAlign=top;childLayout=stackLayout;horizontal=1;startSize=26;horizontalStack=0;resizeParent=1;resizeParentMax=0;resizeLast=0;collapsible=1;marginBottom=0;whiteSpace=wrap;html=1;rounded=1;" vertex="1" parent="1">
          <mxGeometry x="590" y="180" width="160" height="86" as="geometry" />
        </mxCell>
        <mxCell id="T_LSmcnQ2nMDmwuOsEwf-6" value="status, image, borrower" style="text;strokeColor=none;fillColor=none;align=left;verticalAlign=top;spacingLeft=4;spacingRight=4;overflow=hidden;rotatable=0;points=[[0,0.5],[1,0.5]];portConstraint=eastwest;whiteSpace=wrap;html=1;" vertex="1" parent="T_LSmcnQ2nMDmwuOsEwf-5">
          <mxGeometry y="26" width="160" height="26" as="geometry" />
        </mxCell>
        <mxCell id="T_LSmcnQ2nMDmwuOsEwf-7" value="" style="line;strokeWidth=1;fillColor=none;align=left;verticalAlign=middle;spacingTop=-1;spacingLeft=3;spacingRight=3;rotatable=0;labelPosition=right;points=[];portConstraint=eastwest;strokeColor=inherit;" vertex="1" parent="T_LSmcnQ2nMDmwuOsEwf-5">
          <mxGeometry y="52" width="160" height="8" as="geometry" />
        </mxCell>
        <mxCell id="T_LSmcnQ2nMDmwuOsEwf-8" value="do set borrower" style="text;strokeColor=none;fillColor=none;align=left;verticalAlign=top;spacingLeft=4;spacingRight=4;overflow=hidden;rotatable=0;points=[[0,0.5],[1,0.5]];portConstraint=eastwest;whiteSpace=wrap;html=1;" vertex="1" parent="T_LSmcnQ2nMDmwuOsEwf-5">
          <mxGeometry y="60" width="160" height="26" as="geometry" />
        </mxCell>
        <mxCell id="T_LSmcnQ2nMDmwuOsEwf-31" style="edgeStyle=orthogonalEdgeStyle;rounded=0;orthogonalLoop=1;jettySize=auto;html=1;" edge="1" parent="1" source="T_LSmcnQ2nMDmwuOsEwf-9">
          <mxGeometry relative="1" as="geometry">
            <mxPoint x="290" y="580" as="targetPoint" />
          </mxGeometry>
        </mxCell>
        <mxCell id="T_LSmcnQ2nMDmwuOsEwf-9" value="Borrowed without Photo" style="swimlane;fontStyle=1;align=center;verticalAlign=top;childLayout=stackLayout;horizontal=1;startSize=26;horizontalStack=0;resizeParent=1;resizeParentMax=0;resizeLast=0;collapsible=1;marginBottom=0;whiteSpace=wrap;html=1;rounded=1;" vertex="1" parent="1">
          <mxGeometry x="210" y="420" width="160" height="60" as="geometry" />
        </mxCell>
        <mxCell id="T_LSmcnQ2nMDmwuOsEwf-10" value="status, image, borrower" style="text;strokeColor=none;fillColor=none;align=left;verticalAlign=top;spacingLeft=4;spacingRight=4;overflow=hidden;rotatable=0;points=[[0,0.5],[1,0.5]];portConstraint=eastwest;whiteSpace=wrap;html=1;" vertex="1" parent="T_LSmcnQ2nMDmwuOsEwf-9">
          <mxGeometry y="26" width="160" height="26" as="geometry" />
        </mxCell>
        <mxCell id="T_LSmcnQ2nMDmwuOsEwf-11" value="" style="line;strokeWidth=1;fillColor=none;align=left;verticalAlign=middle;spacingTop=-1;spacingLeft=3;spacingRight=3;rotatable=0;labelPosition=right;points=[];portConstraint=eastwest;strokeColor=inherit;" vertex="1" parent="T_LSmcnQ2nMDmwuOsEwf-9">
          <mxGeometry y="52" width="160" height="8" as="geometry" />
        </mxCell>
        <mxCell id="T_LSmcnQ2nMDmwuOsEwf-29" style="edgeStyle=orthogonalEdgeStyle;rounded=0;orthogonalLoop=1;jettySize=auto;html=1;entryX=0.5;entryY=0;entryDx=0;entryDy=0;" edge="1" parent="1" source="T_LSmcnQ2nMDmwuOsEwf-13" target="T_LSmcnQ2nMDmwuOsEwf-28">
          <mxGeometry relative="1" as="geometry" />
        </mxCell>
        <mxCell id="T_LSmcnQ2nMDmwuOsEwf-13" value="Borrowed with photo" style="swimlane;fontStyle=1;align=center;verticalAlign=top;childLayout=stackLayout;horizontal=1;startSize=26;horizontalStack=0;resizeParent=1;resizeParentMax=0;resizeLast=0;collapsible=1;marginBottom=0;whiteSpace=wrap;html=1;rounded=1;" vertex="1" parent="1">
          <mxGeometry x="590" y="420" width="160" height="60" as="geometry" />
        </mxCell>
        <mxCell id="T_LSmcnQ2nMDmwuOsEwf-14" value="status, image, borrower" style="text;strokeColor=none;fillColor=none;align=left;verticalAlign=top;spacingLeft=4;spacingRight=4;overflow=hidden;rotatable=0;points=[[0,0.5],[1,0.5]];portConstraint=eastwest;whiteSpace=wrap;html=1;" vertex="1" parent="T_LSmcnQ2nMDmwuOsEwf-13">
          <mxGeometry y="26" width="160" height="26" as="geometry" />
        </mxCell>
        <mxCell id="T_LSmcnQ2nMDmwuOsEwf-15" value="" style="line;strokeWidth=1;fillColor=none;align=left;verticalAlign=middle;spacingTop=-1;spacingLeft=3;spacingRight=3;rotatable=0;labelPosition=right;points=[];portConstraint=eastwest;strokeColor=inherit;" vertex="1" parent="T_LSmcnQ2nMDmwuOsEwf-13">
          <mxGeometry y="52" width="160" height="8" as="geometry" />
        </mxCell>
        <mxCell id="T_LSmcnQ2nMDmwuOsEwf-33" style="edgeStyle=orthogonalEdgeStyle;rounded=0;orthogonalLoop=1;jettySize=auto;html=1;entryX=0.5;entryY=0;entryDx=0;entryDy=0;" edge="1" parent="1" source="T_LSmcnQ2nMDmwuOsEwf-18" target="T_LSmcnQ2nMDmwuOsEwf-5">
          <mxGeometry relative="1" as="geometry" />
        </mxCell>
        <mxCell id="T_LSmcnQ2nMDmwuOsEwf-18" value="" style="ellipse;html=1;shape=startState;fillColor=#000000;strokeColor=#ff0000;" vertex="1" parent="1">
          <mxGeometry x="460" y="20" width="30" height="30" as="geometry" />
        </mxCell>
        <mxCell id="T_LSmcnQ2nMDmwuOsEwf-19" value="" style="edgeStyle=orthogonalEdgeStyle;html=1;verticalAlign=bottom;endArrow=open;endSize=8;strokeColor=#ff0000;rounded=0;entryX=0.448;entryY=0.013;entryDx=0;entryDy=0;entryPerimeter=0;" edge="1" source="T_LSmcnQ2nMDmwuOsEwf-18" parent="1" target="T_LSmcnQ2nMDmwuOsEwf-1">
          <mxGeometry relative="1" as="geometry">
            <mxPoint x="190" y="170" as="targetPoint" />
          </mxGeometry>
        </mxCell>
        <mxCell id="T_LSmcnQ2nMDmwuOsEwf-20" style="edgeStyle=orthogonalEdgeStyle;rounded=0;orthogonalLoop=1;jettySize=auto;html=1;exitX=1;exitY=0.5;exitDx=0;exitDy=0;entryX=0;entryY=0.5;entryDx=0;entryDy=0;" edge="1" parent="1" source="T_LSmcnQ2nMDmwuOsEwf-2" target="T_LSmcnQ2nMDmwuOsEwf-6">
          <mxGeometry relative="1" as="geometry" />
        </mxCell>
        <mxCell id="T_LSmcnQ2nMDmwuOsEwf-21" value="addImage()" style="text;align=center;fontStyle=1;verticalAlign=middle;spacingLeft=3;spacingRight=3;strokeColor=none;rotatable=0;points=[[0,0.5],[1,0.5]];portConstraint=eastwest;html=1;" vertex="1" parent="1">
          <mxGeometry x="440" y="191" width="80" height="26" as="geometry" />
        </mxCell>
        <mxCell id="T_LSmcnQ2nMDmwuOsEwf-23" value="setBorrower()" style="text;align=center;fontStyle=1;verticalAlign=middle;spacingLeft=3;spacingRight=3;strokeColor=none;rotatable=0;points=[[0,0.5],[1,0.5]];portConstraint=eastwest;html=1;" vertex="1" parent="1">
          <mxGeometry x="590" y="330" width="80" height="26" as="geometry" />
        </mxCell>
        <mxCell id="T_LSmcnQ2nMDmwuOsEwf-26" style="edgeStyle=orthogonalEdgeStyle;rounded=0;orthogonalLoop=1;jettySize=auto;html=1;entryX=0.5;entryY=0;entryDx=0;entryDy=0;" edge="1" parent="1">
          <mxGeometry relative="1" as="geometry">
            <mxPoint x="669.5" y="266" as="sourcePoint" />
            <mxPoint x="669.5" y="420" as="targetPoint" />
          </mxGeometry>
        </mxCell>
        <mxCell id="T_LSmcnQ2nMDmwuOsEwf-27" value="setBorrower()" style="text;align=center;fontStyle=1;verticalAlign=middle;spacingLeft=3;spacingRight=3;strokeColor=none;rotatable=0;points=[[0,0.5],[1,0.5]];portConstraint=eastwest;html=1;" vertex="1" parent="1">
          <mxGeometry x="210" y="340" width="80" height="26" as="geometry" />
        </mxCell>
        <mxCell id="T_LSmcnQ2nMDmwuOsEwf-28" value="" style="ellipse;html=1;shape=endState;fillColor=#000000;strokeColor=#ff0000;" vertex="1" parent="1">
          <mxGeometry x="655" y="590" width="30" height="30" as="geometry" />
        </mxCell>
        <mxCell id="T_LSmcnQ2nMDmwuOsEwf-30" value="" style="ellipse;html=1;shape=endState;fillColor=#000000;strokeColor=#ff0000;" vertex="1" parent="1">
          <mxGeometry x="275" y="580" width="30" height="30" as="geometry" />
        </mxCell>
        <mxCell id="T_LSmcnQ2nMDmwuOsEwf-32" style="edgeStyle=orthogonalEdgeStyle;rounded=0;orthogonalLoop=1;jettySize=auto;html=1;exitX=1;exitY=0.5;exitDx=0;exitDy=0;entryX=0.388;entryY=0.285;entryDx=0;entryDy=0;entryPerimeter=0;" edge="1" parent="1" source="T_LSmcnQ2nMDmwuOsEwf-30" target="T_LSmcnQ2nMDmwuOsEwf-30">
          <mxGeometry relative="1" as="geometry" />
        </mxCell>
        <mxCell id="T_LSmcnQ2nMDmwuOsEwf-34" value="addItem()" style="text;align=center;fontStyle=1;verticalAlign=middle;spacingLeft=3;spacingRight=3;strokeColor=none;rotatable=0;points=[[0,0.5],[1,0.5]];portConstraint=eastwest;html=1;" vertex="1" parent="1">
          <mxGeometry x="290" y="100" width="80" height="26" as="geometry" />
        </mxCell>
        <mxCell id="T_LSmcnQ2nMDmwuOsEwf-35" value="addItem()" style="text;align=center;fontStyle=1;verticalAlign=middle;spacingLeft=3;spacingRight=3;strokeColor=none;rotatable=0;points=[[0,0.5],[1,0.5]];portConstraint=eastwest;html=1;" vertex="1" parent="1">
          <mxGeometry x="590" y="100" width="80" height="26" as="geometry" />
        </mxCell>
      </root>
    </mxGraphModel>
  </diagram>
</mxfile>
